<?xml version="1.0" encoding="UTF-8"?>
<!-- Vantage Strategic Communications — Horizontal Lockup · Light Backgrounds (Cream / White) -->
<!-- Use: Website headers, email banners, documents, proposals -->
<svg xmlns="http://www.w3.org/2000/svg" viewBox="0 0 400 80">
  <defs>
    <style>
      .m1 { fill: none; }
      .m2 { fill: #B8972E; }
      .m3 { fill: #1B2A4A; }
      .m4 { fill: #6B7FA3; }
    </style>
  </defs>
  <!-- Mark -->
  <svg x="4" y="4" width="72" height="72" viewBox="0 0 321 321">
    <polygon class="m1" points="244.01 75.57 304.77 66.06 244.01 75.57 244.01 75.57"/>
    <polygon class="m2" points="108.95 57.42 49.41 57.74 34.05 66.03 97.04 66.03 108.95 57.42"/>
    <polygon class="m2" points="304.77 66.06 224.57 66.03 179.41 75.99 244.01 75.57 304.77 66.06"/>
    <polygon class="m3" points="244.01 75.57 190.03 251.46 206.32 247.96 254.26 88.67 304.51 77.46 304.77 66.06 244.01 75.57"/>
    <polygon class="m3" points="97.13 66.03 137.94 208.28 145.23 185.04 108.95 57.42 97.04 66.03 97.13 66.03"/>
    <path class="m4" d="M244.01,75.57l-64.59.42-34.18,109.05-7.29,23.24-40.82-142.26h-63.15l36.29,118.71c5.19-2.94,11.18-4.63,17.56-4.63,19.7,0,35.68,15.97,35.68,35.68s-14.48,34.13-32.88,35.56l.02.08,99.35.04h.03s53.97-175.9,53.97-175.9h0Z"/>
    <path class="m3" d="M52.15,215.79c0,19.7,15.97,35.68,35.68,35.68.94,0,1.88-.05,2.8-.12l-20.37-66.61c-10.81,6.13-18.12,17.73-18.12,31.05Z"/>
  </svg>
  <!-- Gold divider -->
  <line x1="86" y1="14" x2="86" y2="66" stroke="#B8972E" stroke-opacity="0.5" stroke-width="1"/>
  <!-- VANTAGE wordmark -->
  <text x="97" y="44"
    font-family="CormorantGaramond-SemiBold, 'Cormorant Garamond', serif"
    font-size="22"
    font-weight="600"
    letter-spacing="5.7"
    fill="#1B2A4A"
    style="text-transform:uppercase;">VANTAGE</text>
  <!-- Subtitle -->
  <text x="98" y="60"
    font-family="CormorantGaramond-Regular, 'Cormorant Garamond', serif"
    font-size="9"
    letter-spacing="1.6"
    fill="#6B7FA3"
    style="text-transform:uppercase;">STRATEGIC COMMUNICATIONS</text>
</svg>
