<?xml version="1.0" encoding="UTF-8"?>
<svg id="Composit_Logo" data-name="Composit Logo" xmlns="http://www.w3.org/2000/svg" viewBox="0 0 321 321">
  <defs>
    <style>
      .cls-1 {
        fill: none;
      }

      .cls-2 {
        fill: #d4af52;
      }

      .cls-3 {
        fill: #b8972e;
        opacity: .6;
      }
    </style>
  </defs>
  <polygon class="cls-1" points="244.01 56.73 304.77 47.23 244.01 56.73 244.01 56.73"/>
  <polygon class="cls-2" points="108.95 38.59 49.41 38.9 34.05 47.19 97.04 47.19 108.95 38.59"/>
  <polygon class="cls-2" points="304.77 47.23 224.57 47.2 179.41 57.15 244.01 56.73 304.77 47.23"/>
  <polygon class="cls-2" points="244.01 56.73 190.03 232.62 206.32 229.12 254.26 69.84 304.51 58.62 304.77 47.23 244.01 56.73"/>
  <polygon class="cls-2" points="97.13 47.19 137.94 189.45 145.23 166.2 108.95 38.59 97.04 47.19 97.13 47.19"/>
  <path class="cls-3" d="M244.01,56.73l-64.59.42-34.18,109.05-7.29,23.24L97.13,47.19h-63.15l36.29,118.71c5.19-2.94,11.18-4.63,17.56-4.63,19.7,0,35.68,15.97,35.68,35.68s-14.48,34.13-32.88,35.56l.02.08,99.35.04h.03s53.97-175.9,53.97-175.9h0Z"/>
  <path class="cls-2" d="M52.15,196.95c0,19.7,15.97,35.68,35.68,35.68.94,0,1.88-.05,2.8-.12l-20.37-66.61c-10.81,6.13-18.12,17.73-18.12,31.05Z"/>
</svg>